<svg width="28" height="24" viewBox="0 0 28 24" fill="none" xmlns="http://www.w3.org/2000/svg">
<path d="M14.0059 22.9912L14.0059 22.9912L14 22.9943L13.9941 22.9912C13.7517 22.8629 10.4454 21.061 7.21476 18.2318C3.93158 15.3565 1.00027 11.6574 1 7.75055C1.00217 5.96087 1.71408 4.2451 2.97959 2.97959C4.2451 1.71408 5.96087 1.00217 7.75055 1C10.0393 1.00016 11.9936 1.97945 13.2003 3.58668L14 4.65173L14.7997 3.58668C16.0064 1.97945 17.9607 1.00016 20.2495 1C22.0391 1.00217 23.7549 1.71408 25.0204 2.97959C26.2861 4.24523 26.998 5.96124 27 7.75113C26.9994 11.6578 24.0683 15.3566 20.7852 18.2318C17.5546 21.061 14.2483 22.8629 14.0059 22.9912Z" stroke="#1A98C0" stroke-width="2"/>
</svg>
